# xmcd CD database file
#
# Track frame offsets:
#	150
#	21024
#	49454
#	66434
#	90802
#	108022
#	129508
#	148681
#	166484
#	188375
#	216275
#	239898
#	262987
#	288881
#	311849
#	327573
#	341985
#
# Disc length: 4820 seconds
#
# Revision: 2
# Processed by: cddbd v1.5.2PL0 Copyright (c) Steve Scherf et al.
# Submitted via: CDex 1.51
#
DISCID=0312d211
DTITLE=Various Artist - The Colour of Salsa  [CD 2-3]
DYEAR=2011
DGENRE=Salsa
TTITLE0=Laura Lopez and Raul Ramirez - Caballero Y Damas
TTITLE1=Viviano Venegas - Esa Mujjer
TTITLE2=Coco Naranjo - Necesito Verte
TTITLE3=Tomas Trevino - Copia Fiel
TTITLE4=Lara Montoya - Dulce Habanera
TTITLE5=Santino Salazar - Soy Asi
TTITLE6=Irene Navaro - Propiedad Privada
TTITLE7=Toto Solano - Compay Gallo
TTITLE8=Serena Solano - Senor Amante
TTITLE9=Ramon Sotelo - Pablo Pueblo
TTITLE10=Camila Chavez - Algo Anda Mal
TTITLE11=Alberto Tortosa - Mi Corazón Te Recuerda
TTITLE12=Lola Barreto - Costumbre
TTITLE13=Severino Sandoval - Tu Compleanos
TTITLE14=Elisa Suarez - Mi So Den Boso
TTITLE15=Manuel Alfonso - Olvidam
TTITLE16=Sofia Agosto - Esa Es La Vida
EXTD=YEAR: 2011
EXTT0=
EXTT1=
EXTT2=
EXTT3=
EXTT4=
EXTT5=
EXTT6=
EXTT7=
EXTT8=
EXTT9=
EXTT10=
EXTT11=
EXTT12=
EXTT13=
EXTT14=
EXTT15=
EXTT16=
PLAYORDER=
